<svg xmlns="http://www.w3.org/2000/svg" viewBox="0 0 100 100" width="100" height="100">
  <rect width="100" height="100" fill="#0A0A0A"/>
  <circle cx="50" cy="50" r="30" fill="none" stroke="#C9A000" stroke-width="3"/>
  <text x="50" y="60" font-family="Georgia, serif" font-size="28" font-weight="bold" fill="#C9A000" text-anchor="middle">MP³</text>
  <circle cx="50" cy="50" r="42" fill="none" stroke="#C9A000" stroke-width="1" stroke-dasharray="4 4"/>
  <polygon points="50,15 53,22 60,22 54,27 56,35 50,30 44,35 46,27 40,22 47,22" fill="#F5C518"/>
  <polygon points="35,25 37,30 42,30 38,33 40,38 35,35 30,38 32,33 28,30 33,30" fill="#C9A000"/>
  <polygon points="65,25 67,30 72,30 68,33 70,38 65,35 60,38 62,33 58,30 63,30" fill="#C9A000"/>
</svg>
